<?xml version="1.0" standalone="no"?>
<!DOCTYPE svg PUBLIC "-//W3C//DTD SVG 20010904//EN"
 "http://www.w3.org/TR/2001/REC-SVG-20010904/DTD/svg10.dtd">
<svg version="1.0" xmlns="http://www.w3.org/2000/svg"
 width="404.000000pt" height="172.000000pt" viewBox="0 0 404.000000 172.000000"
 preserveAspectRatio="xMidYMid meet">

<g transform="translate(0.000000,172.000000) scale(0.100000,-0.100000)"
fill="#000000" stroke="none">
<path d="M1951 1605 c-46 -7 -87 -19 -92 -26 -4 -7 -11 -11 -14 -7 -10 9 -66
-12 -59 -23 3 -5 10 -9 15 -9 6 0 8 3 6 8 -3 4 9 8 26 9 30 1 30 1 10 -9 -23
-11 -31 -28 -13 -28 6 0 10 4 10 8 0 7 104 42 127 42 6 0 16 7 23 15 7 8 25
15 41 15 16 0 29 5 29 10 0 12 -1 12 -109 -5z m19 -15 c-8 -5 -22 -9 -30 -9
-10 0 -8 3 5 9 27 12 43 12 25 0z m-70 -20 c-20 -13 -33 -13 -25 0 3 6 14 10
23 10 15 0 15 -2 2 -10z"/>
<path d="M2095 1600 c14 -6 5 -9 -35 -13 -41 -3 -38 -4 15 -2 39 1 89 -3 113
-9 34 -8 45 -8 51 3 7 11 11 10 19 -5 11 -20 5 -74 -7 -74 -4 0 -8 -7 -8 -15
0 -25 15 -6 30 39 11 33 12 46 4 50 -7 2 -5 5 4 5 9 1 19 -6 23 -14 3 -8 13
-15 23 -14 16 0 16 2 -2 10 -16 7 -12 8 17 6 61 -5 29 11 -47 23 -85 14 -228
20 -200 10z m92 -6 c-3 -3 -12 -4 -19 -1 -8 3 -5 6 6 6 11 1 17 -2 13 -5z"/>
<path d="M2395 1561 c3 -5 -3 -12 -12 -15 -15 -4 -14 -4 2 -3 11 1 26 -2 32
-6 8 -5 23 -1 35 8 23 16 23 16 -7 10 -23 -5 -26 -4 -15 4 12 9 10 11 -13 11
-16 0 -26 -4 -22 -9z"/>
<path d="M2485 1550 c3 -6 -1 -10 -9 -10 -8 0 -18 -5 -22 -12 -5 -8 -2 -9 11
-5 17 7 45 -8 45 -24 0 -5 -12 -15 -26 -22 -21 -11 -23 -15 -11 -20 10 -4 23
3 35 18 13 17 22 21 29 14 8 -8 17 -7 31 0 11 6 29 11 39 10 16 0 16 -1 -2 -9
-13 -5 1 -7 42 -5 46 2 63 -1 67 -12 4 -10 15 -12 41 -7 19 3 35 4 35 1 0 -3
-20 -17 -44 -31 -49 -29 -101 -34 -113 -11 -10 18 -124 22 -163 7 -23 -10 -22
-11 17 -11 23 -1 45 -6 48 -11 4 -6 11 -8 16 -5 5 4 9 -1 9 -9 0 -10 9 -16 22
-16 17 0 19 -3 10 -12 -10 -10 -17 -10 -33 0 -11 7 -34 15 -50 17 -41 5 -37
-18 7 -35 33 -13 34 -15 17 -28 -17 -13 -16 -14 7 -8 14 3 34 6 45 6 16 0 17
2 6 9 -24 15 36 26 65 12 21 -9 30 -8 49 6 14 10 25 24 25 31 0 6 12 12 26 12
14 0 23 4 19 10 -4 6 -11 8 -16 5 -5 -4 -9 1 -9 11 0 11 6 15 20 11 11 -3 23
-1 26 4 3 6 15 7 27 3 20 -6 20 -4 -4 18 -17 16 -61 34 -123 51 -98 28 -126
33 -91 16 18 -8 17 -8 -5 -6 -15 1 -24 8 -22 16 2 10 -4 12 -22 7 -15 -4 -26
-1 -29 7 -4 9 -6 9 -6 0 -1 -7 -6 -13 -12 -13 -5 0 -8 4 -5 9 3 5 -1 12 -10
15 -8 3 -12 2 -9 -4z m81 -35 c20 -17 -13 -28 -36 -12 -11 8 -17 16 -14 19 8
8 38 4 50 -7z m121 -21 c-3 -3 -12 -4 -19 -1 -8 3 -5 6 6 6 11 1 17 -2 13 -5z
m-69 -80 c26 -7 31 -37 5 -32 -10 2 -17 10 -15 17 2 8 -3 11 -12 8 -9 -4 -18
-2 -21 3 -7 11 9 13 43 4z m89 -48 c-2 -6 -14 -13 -26 -14 -25 -4 -47 11 -38
25 8 14 69 3 64 -11z"/>
<path d="M1750 1542 c-8 -3 -18 -10 -22 -15 -3 -6 -13 -12 -22 -13 -30 -4
-146 -75 -140 -85 4 -6 14 -2 25 10 11 12 26 21 34 21 8 0 15 4 15 9 0 9 92
42 99 35 2 -2 -2 -4 -10 -4 -11 0 -12 -2 -1 -9 11 -7 10 -9 -3 -14 -10 -5 -14
-3 -9 4 8 13 9 13 -69 -24 -51 -25 -56 -31 -45 -45 7 -10 8 -14 4 -10 -5 4
-15 3 -23 -4 -11 -9 -13 -8 -11 3 2 10 -5 13 -22 12 -14 -2 -56 -3 -95 -3
-120 -1 -355 -23 -355 -33 0 -5 7 -6 15 -3 21 8 214 18 195 10 -8 -4 -22 -13
-31 -20 -13 -12 -20 -12 -42 -1 -15 8 -40 11 -59 8 -31 -5 -30 -6 20 -14 60
-11 69 -27 15 -27 -28 0 -34 3 -23 10 12 8 11 10 -5 10 -13 0 -21 -7 -22 -18
-1 -15 7 -17 56 -17 78 0 143 -39 181 -110 25 -44 27 -56 21 -107 l-7 -58 40
1 41 1 -35 11 -35 11 32 4 c34 3 55 32 24 32 -12 0 -24 12 -32 33 -6 17 -13
34 -14 37 -2 3 -6 15 -10 28 -4 12 -12 22 -18 22 -16 0 1 14 22 17 13 2 22 -7
30 -30 7 -17 24 -56 38 -85 21 -42 30 -52 47 -50 12 2 21 10 21 18 0 8 3 16 8
18 19 6 27 0 27 -18 0 -11 -5 -20 -12 -20 -6 0 -8 -3 -4 -7 14 -15 267 -12
309 3 22 8 49 13 61 13 15 -1 13 -3 -9 -9 l-30 -8 37 -1 c20 0 40 4 43 9 3 6
14 10 23 9 14 0 13 -2 -3 -9 -23 -10 124 -11 219 -2 52 4 57 7 41 18 -17 13
-17 16 0 69 9 31 15 64 12 75 -4 15 0 18 25 14 17 -2 37 -11 45 -21 13 -17 14
-16 7 6 -5 21 -4 23 16 18 17 -4 20 -2 16 10 -4 9 1 24 11 35 16 18 16 18 0
12 -13 -5 -17 0 -17 20 0 22 3 24 23 17 12 -5 22 -14 22 -20 0 -6 6 -16 14
-20 9 -6 10 -11 2 -15 -6 -4 -11 -2 -11 5 0 8 -4 8 -15 -1 -9 -7 -13 -15 -11
-18 10 -9 -15 -43 -26 -36 -7 5 -9 1 -5 -9 3 -10 2 -17 -3 -17 -6 0 -10 -8
-10 -18 0 -24 -35 -53 -48 -40 -6 6 -11 -4 -14 -31 -3 -38 -2 -41 25 -47 17
-3 34 -1 40 6 9 8 8 10 -5 5 -21 -8 -34 27 -19 52 9 15 10 14 11 -11 0 -39 8
-29 14 17 2 21 14 53 26 72 23 37 79 85 98 85 23 0 10 16 -44 53 -33 22 -67
37 -85 37 -18 0 -28 4 -24 10 4 6 -6 10 -22 10 -22 0 -25 -2 -13 -10 12 -8 9
-10 -12 -10 -23 0 -28 4 -28 24 0 15 7 26 20 29 12 3 20 0 20 -7 0 -15 95 -35
112 -24 8 5 0 8 -22 8 -49 0 -67 13 -38 28 13 6 34 13 48 15 14 3 5 3 -20 0
-25 -2 -66 -5 -92 -6 -42 -1 -46 -3 -45 -25 1 -14 -4 -27 -10 -29 -7 -3 -13 3
-13 12 0 10 5 13 13 9 9 -6 9 -5 0 8 -7 8 -11 17 -8 20 3 2 -9 3 -25 0 -30 -4
-41 -26 -17 -36 6 -3 3 -4 -8 -1 -18 4 -21 0 -23 -30 -3 -34 -2 -35 23 -23 23
10 29 20 26 41 -2 11 5 8 18 -7 10 -12 6 -18 -21 -32 -18 -9 -37 -23 -41 -30
-13 -23 -24 -16 -23 14 0 15 -3 39 -7 55 -6 23 -4 27 13 27 11 0 20 5 20 10 0
6 -30 9 -72 8 -64 -1 -67 -2 -28 -7 39 -5 42 -7 19 -13 -14 -4 -41 -3 -60 2
-30 9 -110 7 -264 -4 -56 -5 -69 1 -71 27 -2 14 1 15 12 6 8 -6 14 -7 14 -2 0
5 20 19 45 31 44 21 62 47 28 40 -9 -2 -15 -7 -14 -12 2 -5 -3 -13 -11 -17
-22 -14 -31 -10 -17 8 12 14 12 16 -1 9 -8 -4 -6 0 4 8 21 17 19 26 -4 18z
m-76 -103 c-14 -16 -15 -21 -4 -17 8 3 24 1 35 -5 11 -6 40 -9 65 -8 54 3 48
-9 -7 -14 -21 -1 -49 -5 -63 -8 -60 -14 -100 -17 -100 -10 0 5 8 9 18 10 34 4
97 21 82 23 -8 1 -19 3 -25 5 -5 1 -23 3 -40 5 -22 2 -25 4 -11 7 11 3 26 11
34 19 22 23 37 16 16 -7z m543 -5 c-3 -3 -12 -4 -19 -1 -8 3 -5 6 6 6 11 1 17
-2 13 -5z m-147 -17 c41 -4 52 -16 49 -56 -3 -37 -15 -61 -30 -61 -16 0 -9 18
9 23 15 4 15 5 -2 12 -13 6 -21 4 -24 -3 -6 -18 -72 -15 -72 3 0 8 -4 15 -10
15 -5 0 -10 11 -10 24 0 13 -6 27 -12 29 -7 3 -4 6 8 6 26 1 44 -17 44 -46 0
-16 6 -23 20 -23 15 0 19 6 17 30 -2 25 -8 32 -37 40 -19 6 -50 10 -67 10 -27
0 -33 -4 -33 -21 0 -17 -5 -20 -21 -16 -12 3 -31 2 -43 -2 -11 -5 -30 -5 -41
0 -18 7 -18 8 5 10 14 1 30 3 35 4 6 2 17 4 25 5 8 1 2 7 -14 14 -25 11 -15
13 75 9 57 -2 115 -5 129 -6z m-639 -47 c19 -17 21 -24 12 -39 -8 -13 -8 -22
-1 -29 6 -6 8 -16 5 -24 -4 -9 -8 -5 -12 10 -4 12 -12 22 -17 22 -5 0 -6 -9
-3 -20 4 -11 2 -20 -4 -20 -6 0 -11 -7 -11 -15 0 -9 -9 -5 -27 13 -15 15 -27
30 -26 34 1 3 -4 9 -13 12 -10 4 -13 2 -8 -7 5 -7 0 -5 -11 3 -10 8 -21 14
-24 12 -3 -2 -8 5 -10 15 -2 10 0 15 4 11 4 -4 21 4 37 17 36 30 77 32 109 5z
m536 -32 c2 -13 8 -25 14 -26 6 -3 3 -14 -7 -29 -9 -14 -11 -22 -5 -19 7 4 11
0 11 -11 0 -13 -7 -19 -24 -19 -14 0 -22 4 -19 9 10 17 12 77 2 77 -10 0 -12
43 -2 54 10 9 26 -10 30 -36z m-207 12 c0 -5 -7 -10 -15 -10 -9 0 -25 -9 -37
-20 -12 -11 -18 -20 -12 -20 5 0 3 -4 -5 -9 -11 -7 -9 -13 8 -30 11 -11 27
-21 34 -21 7 1 6 5 -5 13 -12 9 -14 17 -7 30 7 12 6 17 -2 17 -7 0 -9 3 -5 7
10 11 85 12 92 1 3 -5 11 -4 20 3 12 9 14 5 14 -29 0 -30 5 -42 18 -46 9 -2
-5 -4 -33 -3 -45 1 -50 -1 -55 -23 l-6 -25 -8 25 c-4 15 -9 20 -13 12 -2 -6
-9 -10 -14 -6 -5 3 -9 2 -8 -3 4 -20 -3 -31 -26 -41 -19 -9 -23 -8 -19 2 3 7
-2 19 -11 26 -8 7 -15 18 -15 25 0 7 -8 16 -17 19 -15 6 -15 8 -3 17 11 8 12
12 3 16 -20 8 -15 23 8 23 12 0 18 -4 13 -11 -4 -7 -1 -10 7 -7 8 3 15 12 17
21 5 23 -44 23 -66 0 -16 -15 -17 -15 -20 0 -2 9 2 25 8 36 9 18 20 21 85 21
43 0 75 -4 75 -10z m480 -20 c0 -29 -2 -30 -42 -30 l-42 0 29 30 c16 17 35 30
42 30 8 0 13 -12 13 -30z m-340 6 c0 -8 5 -16 11 -18 6 -2 8 -14 4 -31 -5 -20
-13 -27 -31 -27 -29 0 -32 26 -6 46 16 12 15 13 -5 14 -23 0 -29 10 -16 23 12
13 43 7 43 -7z m590 -20 c0 -3 -4 -8 -10 -11 -5 -3 -10 -1 -10 4 0 6 5 11 10
11 6 0 10 -2 10 -4z m-410 -51 c0 -14 -3 -25 -7 -26 -5 -1 -24 -2 -44 -3 -34
-2 -36 0 -29 18 6 18 27 28 73 35 4 0 7 -10 7 -24z m161 3 c1 -7 1 -16 0 -20
0 -5 4 -8 9 -8 6 0 10 -18 10 -41 0 -49 -23 -50 -28 -1 -2 19 -9 33 -18 33 -8
1 -23 3 -34 4 -11 1 -36 3 -55 4 -28 1 -35 5 -35 21 0 18 7 20 75 20 53 0 75
-4 76 -12z m-806 -7 c3 -5 1 -12 -5 -16 -5 -3 -10 1 -10 9 0 18 6 21 15 7z
m171 -17 c12 -3 26 -20 33 -40 14 -40 9 -53 -14 -34 -8 7 -15 9 -15 5 0 -4 -7
-2 -15 5 -8 7 -15 23 -15 36 0 19 -6 23 -37 27 l-38 4 40 1 c22 1 49 -1 61 -4z
m-53 -111 c-26 -20 -43 -15 -54 14 -14 38 -4 71 24 75 18 2 24 -4 34 -37 11
-35 11 -42 -4 -52z m207 12 c0 -21 -5 -25 -30 -25 l-31 0 18 25 c23 32 43 32
43 0z m-121 6 c11 -7 10 -11 -7 -20 -28 -15 -32 -14 -32 9 0 21 16 26 39 11z
m598 -53 c-3 -7 -5 -2 -5 12 0 14 2 19 5 13 2 -7 2 -19 0 -25z m-782 -8 c3 -5
1 -10 -4 -10 -6 0 -11 5 -11 10 0 6 2 10 4 10 3 0 8 -4 11 -10z m218 3 c-7 -2
-19 -2 -25 0 -7 3 -2 5 12 5 14 0 19 -2 13 -5z m177 -13 c22 -7 20 -8 -15 -9
-22 0 -47 4 -55 9 -11 7 -8 9 15 9 17 -1 41 -5 55 -9z m255 0 c27 -7 27 -8 5
-8 -14 0 -36 4 -50 8 -20 6 -21 8 -5 8 11 0 34 -4 50 -8z m-405 -10 c20 -6 21
-8 5 -8 -11 0 -33 4 -50 8 -27 7 -27 8 -5 8 14 0 36 -4 50 -8z m70 0 c18 -12
2 -12 -25 0 -13 6 -15 9 -5 9 8 0 22 -4 30 -9z"/>
<path d="M2080 1389 c0 -5 5 -7 10 -4 6 3 10 8 10 11 0 2 -4 4 -10 4 -5 0 -10
-5 -10 -11z"/>
<path d="M1357 1344 c-17 -17 -5 -31 26 -30 21 1 32 6 32 16 0 16 -45 26 -58
14z"/>
<path d="M1380 1290 c0 -5 5 -10 11 -10 5 0 7 5 4 10 -3 6 -8 10 -11 10 -2 0
-4 -4 -4 -10z"/>
<path d="M1760 1255 c1 -26 2 -28 11 -12 8 14 8 22 0 30 -8 8 -11 3 -11 -18z"/>
<path d="M1806 1271 c-4 -7 -5 -15 -2 -18 9 -9 19 4 14 18 -4 11 -6 11 -12 0z"/>
<path d="M2143 1254 c3 -3 22 -8 41 -10 20 -1 40 -5 44 -8 5 -3 9 1 9 9 0 11
-13 15 -50 15 -28 0 -48 -3 -44 -6z"/>
<path d="M1520 1170 c0 -5 5 -10 11 -10 5 0 7 5 4 10 -3 6 -8 10 -11 10 -2 0
-4 -4 -4 -10z"/>
<path d="M2840 1450 c39 -21 50 -24 50 -12 0 8 -58 32 -76 32 -5 -1 7 -9 26
-20z"/>
<path d="M2976 1435 c-4 -16 -11 -23 -18 -19 -7 4 -8 3 -4 -5 4 -6 11 -9 16
-6 5 3 11 1 15 -5 4 -6 -7 -9 -28 -8 -19 2 -33 6 -30 11 2 4 -1 7 -6 7 -6 0
-11 -4 -11 -10 0 -5 -7 -10 -15 -10 -12 0 -15 -15 -15 -71 l0 -71 -45 4 c-30
2 -44 -1 -41 -8 2 -6 -2 -11 -9 -11 -7 0 -11 7 -8 14 8 21 -27 53 -56 51 -39
-1 -53 1 -48 10 3 4 -11 8 -31 9 -33 1 -34 1 -10 -7 14 -4 47 -22 72 -39 25
-18 46 -27 46 -21 0 6 -10 14 -22 19 -17 6 -18 9 -5 14 21 8 40 -17 32 -42 -3
-11 1 -34 9 -50 9 -17 16 -48 16 -71 l0 -40 92 0 c90 0 117 7 45 12 -20 1 -37
6 -37 10 0 4 -8 4 -17 1 -16 -6 -16 -5 -4 11 8 9 17 13 20 9 11 -15 30 -13 25
2 -4 11 1 15 17 16 13 0 18 3 11 6 -6 2 -10 9 -6 14 3 5 14 4 27 -2 16 -9 22
-9 25 0 2 6 9 11 17 11 7 0 17 6 23 13 15 18 -7 33 -45 30 -25 -2 -31 1 -29
15 2 12 15 18 47 22 l44 5 -3 39 c-3 26 0 36 7 32 14 -9 14 -63 1 -71 -6 -4
-4 -19 5 -42 17 -41 20 -65 4 -43 -8 12 -9 11 -5 -5 5 -16 1 -21 -14 -22 -11
-1 -18 2 -15 8 4 5 -5 4 -20 -3 -21 -10 -23 -13 -10 -20 23 -13 18 -27 -7 -22
-22 4 -21 4 1 -6 17 -7 28 -7 35 0 5 5 6 10 2 10 -5 0 -3 7 4 15 7 8 16 13 20
10 5 -3 18 6 29 21 21 27 19 54 -5 54 -8 0 -14 8 -14 18 0 13 2 14 9 4 5 -9
10 2 14 32 7 48 -8 100 -26 89 -6 -3 -7 -1 -3 6 4 6 0 24 -10 39 -10 15 -17
30 -16 35 1 4 -3 7 -9 7 -5 0 -7 5 -4 10 3 6 0 10 -8 10 -8 0 -18 -11 -21 -25z
m27 -19 c4 -10 1 -13 -8 -9 -8 3 -12 9 -9 14 7 12 11 11 17 -5z m66 -116 c0
-10 -3 -8 -9 5 -12 27 -12 43 0 25 5 -8 9 -22 9 -30z m-211 -98 c2 -17 7 -32
13 -32 5 0 8 3 8 8 -3 20 3 28 21 28 29 0 24 -49 -5 -55 -11 -2 -24 -9 -28
-17 -14 -25 -25 -15 -29 29 -3 23 -8 50 -13 61 -6 14 -4 17 11 14 13 -2 20
-13 22 -36z m-64 10 c3 7 3 2 0 -11 -3 -13 -2 -21 3 -18 5 3 10 -9 11 -26 2
-17 9 -35 17 -40 18 -10 20 -27 3 -27 -14 0 -38 44 -38 67 0 8 -8 26 -17 41
-15 24 -16 25 -1 14 13 -10 17 -10 22 0z"/>
<path d="M2375 1440 c-4 -6 6 -10 22 -10 22 0 25 2 13 10 -19 12 -27 12 -35 0z"/>
<path d="M2443 1443 c9 -2 23 -2 30 0 6 3 -1 5 -18 5 -16 0 -22 -2 -12 -5z"/>
<path d="M2911 1433 c-13 -15 -12 -15 15 -9 40 10 55 26 24 26 -14 -1 -31 -8
-39 -17z"/>
<path d="M2640 1429 c0 -5 5 -7 10 -4 6 3 10 8 10 11 0 2 -4 4 -10 4 -5 0 -10
-5 -10 -11z"/>
<path d="M2280 1415 c0 -8 2 -15 4 -15 2 0 6 7 10 15 3 8 1 15 -4 15 -6 0 -10
-7 -10 -15z"/>
<path d="M2805 1411 c1 -8 8 -17 15 -19 7 -3 10 0 6 7 -5 7 1 11 14 11 12 0
18 -4 15 -10 -3 -5 0 -10 8 -10 18 0 31 29 14 32 -49 6 -74 2 -72 -11z"/>
<path d="M995 1363 c-49 -11 -126 -44 -149 -64 -20 -18 -23 -26 -16 -51 7 -24
1 -121 -10 -163 -6 -23 1 -35 20 -35 11 0 20 -4 20 -8 0 -5 38 -9 85 -10 85
-1 92 1 76 26 -7 11 -9 11 -14 -2 -13 -33 -25 -14 -20 31 4 37 1 50 -13 60
-10 7 -12 13 -6 13 7 0 12 12 11 28 0 24 -1 25 -9 7 -7 -16 -9 -17 -9 -3 -1 9
2 24 6 33 5 15 8 15 24 -6 10 -13 19 -19 19 -12 0 28 -32 45 -75 39 -29 -5
-45 -3 -53 6 -14 17 1 43 18 33 9 -5 11 -4 6 3 -4 7 -1 12 8 12 9 0 16 -4 16
-10 0 -6 9 -6 24 0 13 5 27 6 32 2 4 -4 4 -1 0 6 -4 6 -2 12 3 12 6 0 11 -5
11 -11 0 -5 5 -7 10 -4 16 10 0 27 -21 22 -10 -3 -25 0 -34 7 -12 9 -5 11 35
12 28 0 45 -3 39 -7 -9 -5 -5 -17 11 -43 15 -25 18 -36 9 -34 -8 2 -13 -3 -11
-11 3 -12 1 -12 -13 -1 -11 9 -13 16 -5 24 19 19 10 29 -10 11 -17 -15 -17
-20 -5 -39 10 -16 12 -30 6 -51 -6 -19 -10 -23 -10 -11 -1 11 -4 16 -7 13 -4
-4 -1 -19 5 -35 8 -20 9 -36 2 -55 -8 -21 -8 -25 4 -20 10 3 15 20 15 53 0 34
7 58 26 86 15 21 30 41 35 42 5 2 9 10 9 18 0 8 3 13 8 12 15 -4 52 14 47 23
-4 5 -11 9 -16 9 -6 0 -8 -4 -5 -8 2 -4 -13 -8 -34 -8 -36 -1 -48 12 -26 27 5
4 -7 10 -25 14 -29 7 -31 9 -14 16 22 8 3 10 -30 2z m8 -20 c-7 -2 -21 -2 -30
0 -10 3 -4 5 12 5 17 0 24 -2 18 -5z m-87 -26 c-11 -7 -28 -20 -38 -29 -19
-19 -38 -24 -38 -10 0 5 17 18 38 29 39 22 70 30 38 10z m166 -24 c-6 -3 -10
-9 -7 -13 3 -5 2 -11 -3 -14 -4 -2 -13 3 -19 12 -8 14 -6 17 16 18 14 1 20 -1
13 -3z m-212 -37 c0 -2 -7 -7 -16 -10 -8 -3 -12 -2 -9 4 6 10 25 14 25 6z m16
-29 c11 4 14 -9 14 -71 0 -64 -3 -76 -16 -76 -14 0 -16 9 -12 58 3 31 3 49 1
40 -3 -10 -9 -18 -14 -18 -12 0 -11 -16 1 -60 9 -33 12 -35 57 -36 27 -1 39 0
27 3 -18 3 -20 9 -14 53 4 27 10 53 14 57 4 5 5 -14 2 -42 -5 -41 -4 -46 4
-25 10 23 12 24 21 7 7 -11 7 -22 1 -30 -5 -7 -8 -20 -7 -30 2 -9 0 -15 -5
-12 -5 3 -34 7 -66 10 -31 2 -62 9 -68 16 -8 9 -8 10 2 5 9 -5 12 6 12 43 0
27 5 53 10 56 6 3 10 21 11 38 0 18 3 27 5 20 3 -7 12 -9 20 -6z"/>
<path d="M1058 1363 c6 -2 18 -2 25 0 6 3 1 5 -13 5 -14 0 -19 -2 -12 -5z"/>
<path d="M1110 1340 c8 -5 20 -10 25 -10 6 0 3 5 -5 10 -8 5 -19 10 -25 10 -5
0 -3 -5 5 -10z"/>
<path d="M1080 1326 c0 -2 7 -6 15 -10 8 -3 15 -1 15 4 0 6 -7 10 -15 10 -8 0
-15 -2 -15 -4z"/>
<path d="M2717 1323 c-4 -3 -7 -11 -7 -17 0 -6 5 -5 12 2 6 6 9 14 7 17 -3 3
-9 2 -12 -2z"/>
<path d="M2760 1313 c0 -13 29 -38 35 -31 3 3 -4 13 -15 23 -11 10 -20 13 -20
8z"/>
<path d="M1185 1270 c4 -6 11 -8 16 -4 14 9 61 -5 54 -16 -3 -5 3 -8 14 -7 23
1 23 19 1 29 -24 11 -92 9 -85 -2z"/>
<path d="M2560 1269 c22 -8 20 -8 -10 -5 -21 2 -44 -2 -55 -10 -16 -12 -16
-14 -3 -14 9 0 19 6 21 13 4 9 8 8 16 -3 7 -10 6 -17 -2 -22 -9 -6 -9 -8 1 -8
7 0 10 -4 7 -10 -6 -9 8 -15 29 -11 5 1 6 -5 2 -14 -3 -9 -6 -26 -6 -36 0 -11
-4 -17 -10 -14 -5 3 -10 15 -10 25 0 25 -67 67 -87 54 -8 -5 -14 -13 -13 -18
1 -5 -4 -12 -12 -17 -19 -12 -16 -125 5 -146 15 -15 17 -15 23 0 3 9 10 14 15
11 5 -3 9 0 9 5 0 15 -13 14 -29 -1 -11 -11 -12 -9 -4 7 13 26 23 116 12 110
-4 -3 -6 4 -4 16 5 27 11 33 20 20 3 -6 1 -11 -4 -11 -8 0 -7 -6 1 -19 6 -10
17 -17 24 -14 6 2 14 -7 18 -21 3 -14 11 -26 16 -26 20 0 9 -35 -17 -55 -15
-13 -23 -27 -19 -33 12 -20 32 -14 44 13 7 14 20 25 31 25 11 0 23 4 26 10 3
5 29 9 58 8 29 -1 57 1 63 5 6 3 11 0 11 -8 0 -8 -8 -15 -17 -15 -18 0 -44
-24 -53 -50 -4 -11 -6 -10 -6 4 -1 11 6 28 16 38 9 10 11 18 5 18 -6 0 -13 -4
-16 -9 -4 -5 -17 -8 -31 -7 -21 3 -23 1 -14 -15 5 -11 14 -19 19 -19 6 0 10
-7 10 -15 0 -8 7 -15 16 -15 8 0 12 -5 9 -10 -4 -6 -11 -7 -17 -4 -7 4 -8 2
-4 -4 13 -22 47 5 40 32 -6 24 19 55 30 38 3 -6 -1 -12 -9 -16 -8 -3 -15 -11
-15 -18 0 -19 43 28 45 49 1 10 5 26 9 35 10 22 4 50 -11 56 -8 2 -13 -5 -13
-17 0 -11 -5 -23 -11 -27 -16 -10 -89 -12 -89 -2 0 4 5 9 10 9 6 1 16 2 23 3
6 1 20 -1 29 -6 10 -5 19 -4 23 2 3 5 -2 10 -12 11 -80 4 -97 12 -90 43 2 11
1 32 -3 46 -7 21 -8 18 -9 -17 -1 -23 -5 -44 -9 -47 -5 -3 -8 15 -8 40 1 29
-4 48 -14 55 -13 9 -13 10 2 6 9 -3 19 -3 22 0 3 4 19 8 34 9 28 3 29 3 27
-47 -1 -33 1 -46 7 -37 8 10 11 10 15 1 2 -7 18 -13 33 -13 24 0 28 4 25 21
-6 30 -10 32 -26 12 -12 -15 -12 -16 4 -10 11 4 16 3 12 -3 -9 -15 -19 -12
-44 9 -16 14 -18 21 -9 25 10 5 10 7 1 12 -7 3 -13 10 -13 15 0 5 9 4 19 -3
16 -10 18 -15 8 -27 -10 -11 -9 -13 3 -9 23 7 18 29 -11 50 -15 12 -47 20 -80
23 -41 3 -48 1 -29 -6z m-113 -109 c1 -11 -2 -20 -8 -20 -10 0 -12 23 -2 33 9
9 9 10 10 -13z m-7 -40 c0 -5 -5 -10 -11 -10 -5 0 -7 5 -4 10 3 6 8 10 11 10
2 0 4 -4 4 -10z m297 -12 c-3 -8 -6 -5 -6 6 -1 11 2 17 5 13 3 -3 4 -12 1 -19z
m-137 -3 c0 -8 -7 -15 -15 -15 -8 0 -15 7 -15 15 0 8 7 15 15 15 8 0 15 -7 15
-15z"/>
<path d="M1131 1247 c-6 -8 -7 -17 -3 -21 4 -4 3 -7 -3 -6 -34 7 -46 -9 -69
-93 -7 -22 -4 -31 15 -46 13 -11 25 -19 26 -18 1 1 -2 22 -7 47 -5 26 -4 50 1
56 5 6 7 13 4 16 -3 3 1 11 10 18 13 11 14 10 9 -6 -4 -10 -11 -23 -15 -29 -4
-5 -4 -30 1 -54 4 -25 6 -50 3 -57 -2 -6 0 -15 6 -19 6 -3 11 -12 11 -18 0 -7
-6 -4 -14 5 -7 10 -15 15 -18 12 -4 -3 -5 2 -4 12 0 9 -5 19 -11 21 -19 7 -15
-15 6 -36 11 -11 17 -22 15 -25 -2 -3 -1 -4 2 -2 3 3 27 -2 52 -9 34 -11 49
-11 57 -3 7 8 5 9 -7 5 -9 -3 -26 3 -39 14 -12 10 -26 19 -31 19 -5 0 -8 8 -6
17 2 13 16 17 63 19 33 1 70 5 83 9 18 6 21 4 16 -10 -6 -14 -4 -16 12 -7 10
5 33 12 51 15 26 4 31 2 26 -11 -4 -15 -3 -15 6 -2 14 19 14 100 0 100 -5 0
-7 4 -4 10 3 5 -12 29 -34 52 -22 24 -41 37 -41 31 0 -7 4 -13 8 -13 13 0 29
-42 24 -62 -2 -10 -9 -15 -18 -11 -12 5 -19 -7 -15 -29 0 -5 -5 -8 -13 -8 -10
0 -14 10 -14 30 1 16 4 27 8 25 4 -3 10 6 12 20 6 27 6 27 -67 26 -27 -1 -57
3 -65 9 -12 9 -10 10 9 5 16 -5 21 -4 17 4 -10 15 -41 14 -55 -2z m-4 -104
l-1 -48 49 -3 c68 -4 77 -17 11 -16 -65 1 -72 5 -78 46 -4 26 8 68 19 68 1 0
1 -21 0 -47z m250 -31 c-3 -14 -6 -12 -15 8 l-10 25 -7 -32 c-5 -23 -13 -33
-26 -33 -11 0 -19 4 -19 9 0 13 23 54 40 73 14 15 16 14 28 -9 7 -13 11 -32 9
-41z m-297 3 c0 -8 -4 -15 -10 -15 -5 0 -10 7 -10 15 0 8 5 15 10 15 6 0 10
-7 10 -15z"/>
<path d="M1218 1253 c7 -3 16 -2 19 1 4 3 -2 6 -13 5 -11 0 -14 -3 -6 -6z"/>
<path d="M2330 1211 c13 -25 13 -34 0 -26 -5 3 -10 2 -10 -3 0 -14 11 -21 26
-15 16 6 19 33 4 33 -5 0 -10 7 -10 15 0 8 -5 15 -10 15 -7 0 -7 -6 0 -19z"/>
<path d="M2471 1114 c0 -11 3 -14 6 -6 3 7 2 16 -1 19 -3 4 -6 -2 -5 -13z"/>
<path d="M2490 1090 c0 -5 5 -10 10 -10 6 0 10 5 10 10 0 6 -4 10 -10 10 -5 0
-10 -4 -10 -10z"/>
<path d="M1306 1044 c-5 -12 -2 -15 10 -10 8 3 18 6 20 6 2 0 4 5 4 10 0 16
-27 11 -34 -6z"/>
<path d="M1354 1048 c3 -12 0 -18 -10 -18 -8 0 -19 -12 -24 -26 -9 -22 -14
-25 -37 -19 -23 5 -25 4 -14 -9 11 -13 9 -14 -21 -6 -41 12 -41 12 -33 0 8
-13 -11 -13 -34 -1 -10 6 -23 6 -32 0 -7 -5 -9 -9 -4 -10 22 -2 51 -8 74 -15
17 -5 22 -4 17 4 -5 8 -2 10 9 6 40 -16 136 65 113 97 -8 11 -9 11 -4 -3z"/>
<path d="M1518 1053 c12 -2 30 -2 40 0 9 3 -1 5 -23 4 -22 0 -30 -2 -17 -4z"/>
<path d="M835 1030 c3 -5 8 -10 11 -10 2 0 4 5 4 10 0 6 -5 10 -11 10 -5 0 -7
-4 -4 -10z"/>
<path d="M1256 1033 c-4 -4 -22 -6 -41 -5 -19 2 -35 -2 -35 -8 0 -5 3 -10 8
-11 4 0 26 -2 50 -5 33 -4 42 -2 42 10 0 17 -14 28 -24 19z"/>
<path d="M1290 1006 c0 -9 5 -16 10 -16 6 0 10 4 10 9 0 6 -4 13 -10 16 -5 3
-10 -1 -10 -9z"/>
<path d="M2457 1014 c-9 -10 12 -34 29 -34 8 0 14 -4 14 -10 0 -5 7 -6 17 -3
11 4 14 3 9 -5 -4 -7 -3 -12 3 -12 5 0 13 5 16 10 8 13 42 13 50 0 4 -7 -2 -9
-19 -4 -14 3 -26 2 -26 -3 0 -9 20 -10 75 -4 18 2 17 4 -5 14 -14 6 -31 17
-38 24 -11 11 -11 13 2 13 9 0 16 5 16 10 0 6 -6 10 -14 10 -8 0 -18 -4 -21
-10 -3 -5 -16 -10 -28 -11 -20 -1 -20 -2 3 -9 24 -8 24 -8 -7 -9 -21 -1 -36 5
-42 17 -6 9 -11 13 -11 7 0 -5 -4 -4 -8 3 -5 7 -11 9 -15 6z"/>
<path d="M1120 980 c0 -5 7 -7 15 -4 8 4 15 8 15 10 0 2 -7 4 -15 4 -8 0 -15
-4 -15 -10z"/>
<path d="M666 722 c-3 -5 -18 -8 -33 -6 -15 1 -34 -2 -43 -7 -11 -8 -9 -8 10
-4 21 5 22 4 7 -5 -10 -6 -23 -10 -30 -7 -15 5 -58 -43 -50 -57 4 -5 11 0 16
12 10 22 37 38 37 21 0 -5 -7 -12 -15 -15 -10 -4 -14 -14 -10 -28 5 -17 4 -18
-5 -6 -9 13 -10 12 -8 -4 2 -10 -3 -21 -10 -23 -7 -3 -10 1 -6 10 3 8 0 18 -7
23 -8 4 -10 3 -5 -4 4 -7 2 -12 -3 -12 -28 0 0 -112 35 -141 11 -9 16 -6 25
20 6 17 15 31 20 31 5 0 3 -16 -5 -35 -8 -19 -11 -35 -5 -35 5 0 9 8 9 18 1
15 2 15 15 -2 12 -16 12 -22 2 -28 -8 -5 -6 -8 7 -8 16 0 17 -2 5 -16 -11 -14
-10 -15 7 -12 13 2 19 -2 18 -13 -1 -12 5 -15 20 -13 20 4 20 4 1 -5 -29 -14
-35 -13 -35 4 0 8 -8 14 -17 13 -42 -3 -60 3 -60 20 0 9 5 21 11 25 6 5 1 5
-12 2 -19 -5 -23 -2 -28 24 -4 17 -10 31 -15 31 -12 0 -11 -3 3 -37 6 -15 10
-32 9 -36 -1 -5 3 -6 9 -2 5 3 10 0 10 -8 0 -20 45 -48 67 -41 15 5 16 4 3 -5
-17 -12 -18 -12 35 -16 62 -5 95 4 95 26 0 10 5 19 10 19 6 0 5 6 -2 14 -9 10
-17 11 -30 2 -13 -8 -21 -7 -30 2 -6 6 -17 12 -22 12 -6 0 -2 -7 8 -15 11 -8
15 -15 10 -15 -12 0 -52 29 -41 30 4 0 0 15 -9 33 -19 36 -23 202 -6 219 6 6
8 17 5 24 -4 11 1 12 25 3 41 -14 54 -32 55 -74 1 -35 11 -46 20 -22 13 33
-11 87 -43 100 -13 5 -13 6 1 6 8 1 21 -5 28 -11 11 -10 13 -10 7 0 -4 7 -1
12 9 12 12 0 14 -7 10 -30 -4 -22 -2 -28 9 -24 15 6 28 -17 18 -33 -4 -5 -14
-13 -22 -16 -12 -4 -12 -6 2 -6 17 -1 48 34 48 55 0 20 -52 64 -74 62 -11 0
-28 2 -37 6 -10 4 -20 3 -23 -2z m-36 -36 c0 -3 -4 -8 -10 -11 -5 -3 -10 -1
-10 4 0 6 5 11 10 11 6 0 10 -2 10 -4z m160 -34 c0 -13 -3 -12 -15 4 -19 25
-19 40 0 24 8 -7 15 -20 15 -28z m-181 -15 c1 -5 -3 -5 -9 -2 -5 3 -10 -1 -10
-9 0 -8 5 -18 10 -21 8 -5 7 -12 -2 -23 -10 -12 -10 -14 0 -8 8 5 12 0 12 -13
0 -34 -24 -19 -32 19 -8 42 12 112 23 83 4 -10 8 -22 8 -26z m-40 -84 c0 -48
-17 -109 -18 -70 -1 9 -5 17 -11 17 -5 0 -10 12 -10 28 l1 27 14 -30 c16 -37
19 -29 4 14 -12 33 -7 61 11 61 5 0 10 -21 9 -47z m-52 -5 c-3 -8 -6 -5 -6 6
-1 11 2 17 5 13 3 -3 4 -12 1 -19z m216 -154 c-7 -3 -9 -12 -6 -20 6 -16 -5
-18 -26 -5 -11 7 -10 11 5 20 11 6 24 10 29 10 6 0 5 -3 -2 -5z m-46 -40 c-3
-3 -12 -4 -19 -1 -8 3 -5 6 6 6 11 1 17 -2 13 -5z"/>
<path d="M2490 695 c0 -9 9 -15 25 -15 17 0 25 5 25 18 0 13 -2 14 -9 3 -6 -9
-11 -10 -15 -2 -10 16 -26 14 -26 -4z"/>
<path d="M2550 699 c0 -11 25 -39 31 -36 3 1 1 -2 -3 -7 -12 -16 -9 -46 5 -46
9 0 9 -2 -1 -8 -16 -11 -13 -244 3 -240 6 2 11 21 11 43 2 62 3 67 14 60 6 -4
10 6 10 24 0 16 6 31 13 34 10 4 10 7 0 18 -7 7 -13 23 -13 36 0 13 -5 23 -11
23 -8 0 -8 5 1 15 7 8 19 15 26 15 8 0 14 4 14 10 0 6 -9 6 -26 -1 -32 -11
-40 -7 -19 11 12 10 22 40 12 40 -1 0 -17 4 -35 9 -21 6 -32 6 -32 0z m58
-131 c0 -13 1 -27 2 -33 5 -20 0 -45 -9 -45 -14 0 -22 72 -9 87 14 17 15 17
16 -9z"/>
<path d="M2673 697 c-13 -5 -23 -14 -23 -19 0 -5 -4 -6 -10 -3 -5 3 -10 1 -10
-6 0 -7 8 -9 23 -4 12 4 40 10 61 13 22 4 41 12 43 18 4 13 -56 14 -84 1z"/>
<path d="M2800 531 l0 -181 85 0 c70 0 85 3 85 16 0 8 5 12 10 9 6 -4 8 -11 5
-16 -4 -5 3 -9 14 -9 13 0 21 6 21 18 0 13 -10 17 -48 18 -30 1 -40 -1 -27 -5
17 -7 16 -8 -8 -13 -21 -4 -27 -2 -23 8 3 7 1 16 -4 19 -5 3 -7 12 -4 19 3 7
-2 16 -11 20 -13 5 -15 1 -10 -17 4 -12 7 -24 7 -27 1 -26 -4 -27 -39 -15
l-36 12 2 156 c0 95 -3 158 -9 162 -7 4 -10 -56 -10 -174z"/>
<path d="M2840 690 c0 -26 25 -36 47 -19 15 12 16 12 10 -3 -3 -10 -2 -18 2
-18 5 0 11 7 15 15 4 10 19 15 49 15 32 0 44 4 44 15 0 9 -10 15 -24 15 -13 0
-22 -3 -20 -7 3 -5 -13 -9 -34 -10 -21 0 -39 3 -39 8 0 5 -11 9 -25 9 -18 0
-25 -5 -25 -20z"/>
<path d="M3098 698 c9 -9 15 -9 24 0 9 9 7 12 -12 12 -19 0 -21 -3 -12 -12z"/>
<path d="M3160 705 c0 -2 14 -18 30 -35 32 -33 37 -32 19 3 -15 28 -49 50 -49
32z"/>
<path d="M3318 703 c6 -3 12 -9 12 -14 0 -6 -3 -8 -7 -6 -10 7 -4 -166 6 -176
5 -5 7 32 6 82 -1 56 3 92 9 94 7 3 10 -22 8 -77 -3 -108 -8 -127 -30 -120
-12 4 -10 0 7 -15 13 -12 20 -25 16 -29 -4 -4 -10 -2 -12 5 -8 23 -40 -7 -35
-33 2 -13 7 -22 11 -20 4 3 13 0 21 -6 12 -8 12 -9 -2 -4 -10 3 -18 1 -18 -4
0 -20 -27 -9 -38 14 -8 19 -8 31 3 53 15 29 10 73 -7 73 -5 0 -6 5 -2 12 5 7
3 8 -6 3 -9 -6 -12 -4 -8 7 4 9 0 15 -8 15 -20 0 -17 -14 6 -37 23 -23 26 -50
6 -50 -8 0 -16 12 -18 27 -2 17 -10 27 -22 29 -14 2 -16 0 -7 -9 15 -15 14
-24 -4 -31 -8 -3 -14 -2 -13 2 3 14 -14 62 -22 62 -5 0 -6 10 -3 23 4 18 3 19
-6 7 -13 -18 -14 -1 -2 19 8 12 11 10 16 -10 3 -14 15 -30 25 -37 16 -10 18
-9 14 3 -6 14 6 20 29 16 4 -1 4 7 -1 16 -5 10 -12 25 -16 33 -3 8 -4 3 -1
-12 5 -25 4 -25 -20 -15 -17 8 -20 13 -10 15 8 2 15 8 15 13 0 6 -9 7 -21 4
-18 -6 -20 -4 -14 15 5 15 4 20 -4 16 -6 -4 -11 -14 -11 -22 0 -15 -16 -19
-24 -6 -6 10 15 37 34 45 8 3 3 5 -12 4 -20 -1 -28 -7 -31 -27 -3 -14 -1 -31
5 -37 6 -7 8 -13 4 -13 -4 0 4 -19 16 -42 12 -24 23 -47 24 -53 1 -5 9 -26 18
-45 13 -29 15 -31 16 -12 0 23 0 23 24 5 13 -10 22 -21 20 -25 -3 -4 3 -22 12
-40 21 -41 8 -30 -21 18 -17 28 -23 33 -28 20 -4 -9 -2 -16 4 -16 6 0 7 -4 4
-10 -3 -5 -1 -18 4 -28 8 -15 23 -19 76 -21 l65 -2 0 179 0 179 -32 0 c-18 1
-27 -1 -20 -4z m-108 -123 c0 -5 -4 -10 -10 -10 -5 0 -10 5 -10 10 0 6 5 10
10 10 6 0 10 -4 10 -10z m38 -215 c-3 -3 -9 2 -12 12 -6 14 -5 15 5 6 7 -7 10
-15 7 -18z"/>
<path d="M3067 683 c-4 -3 -7 -80 -7 -170 l0 -163 25 0 25 0 -1 164 c-1 135
-4 166 -16 170 -18 7 -18 7 -26 -1z m32 -168 c2 -128 1 -144 -13 -139 -17 7
-22 44 -6 44 14 0 12 84 -2 98 -9 9 -9 15 0 24 16 16 16 62 0 52 -8 -5 -9 -2
-5 10 4 10 7 32 7 49 0 19 3 27 8 20 4 -7 9 -78 11 -158z"/>
<path d="M2665 650 c-3 -5 -1 -10 4 -10 6 0 11 5 11 10 0 6 -2 10 -4 10 -3 0
-8 -4 -11 -10z"/>
<path d="M901 624 c-47 -20 -79 -103 -65 -172 8 -39 69 -111 83 -97 14 14 -2
36 -28 38 -13 1 -20 6 -16 15 3 8 0 10 -6 6 -7 -4 -10 1 -7 11 1 10 9 20 17
23 9 3 11 0 6 -8 -6 -9 -4 -11 5 -5 9 5 10 2 5 -14 -4 -12 -2 -21 4 -21 6 0
11 6 11 13 0 9 2 9 9 -1 14 -23 21 13 20 103 -1 86 5 110 23 99 7 -4 8 -2 4 4
-4 6 1 10 13 9 11 0 19 -5 18 -10 -1 -5 4 -12 12 -15 8 -3 11 0 7 7 -9 14 -7
14 33 0 20 -7 28 -14 22 -19 -7 -4 -9 -15 -5 -25 7 -18 8 -18 16 1 6 14 7 13
3 -8 -6 -32 10 -47 18 -17 18 70 -109 122 -202 83z m39 -4 c-8 -5 -19 -10 -25
-10 -5 0 -3 5 5 10 8 5 20 10 25 10 6 0 3 -5 -5 -10z m-50 -45 c0 -8 5 -17 11
-21 8 -5 10 1 7 20 -3 14 -2 26 2 26 7 0 20 -96 20 -146 0 -17 -4 -22 -16 -17
-13 5 -15 16 -12 55 3 29 2 44 -3 36 -6 -9 -9 -6 -9 10 0 13 -4 20 -10 17 -7
-4 -7 -13 0 -26 8 -14 7 -27 -5 -49 -19 -37 -25 -38 -25 -4 0 14 4 23 10 19 6
-4 10 5 10 20 0 15 -4 24 -10 20 -5 -3 -10 -1 -10 4 0 6 5 11 11 11 5 0 7 5 4
10 -3 6 -1 10 5 10 7 0 9 7 6 16 -3 8 -2 12 4 9 6 -3 10 -12 10 -20z"/>
<path d="M1230 631 c0 -4 -11 -6 -25 -4 -32 7 -35 -10 -32 -157 l2 -115 40 -1
c46 -2 58 3 49 18 -4 6 -10 5 -15 -3 -5 -9 -9 26 -10 86 0 55 -4 111 -8 125
-4 14 -6 -29 -5 -95 1 -66 0 -106 -3 -90 -5 27 -6 28 -13 10 -8 -19 -9 -19 -9
2 -1 12 -5 25 -11 28 -5 3 -9 16 -9 28 1 16 3 17 6 5 2 -9 11 -19 19 -22 11
-4 14 4 14 39 0 38 -3 45 -20 45 -12 0 -20 7 -20 16 0 10 6 14 15 10 10 -4 15
1 15 15 0 11 -4 17 -10 14 -6 -3 -10 4 -10 17 0 18 2 20 10 8 5 -8 10 -10 10
-3 0 6 9 9 20 6 16 -4 19 -2 14 11 -7 17 -14 21 -14 7z m-33 -133 c-3 -8 -6
-5 -6 6 -1 11 2 17 5 13 3 -3 4 -12 1 -19z"/>
<path d="M1290 620 c-28 -22 -20 -27 13 -8 29 17 89 18 76 1 -8 -8 -4 -10 13
-6 13 3 20 3 16 -1 -3 -4 -2 -21 2 -37 5 -16 10 -66 13 -111 2 -46 2 -69 0
-53 -7 49 -20 50 -36 3 l-15 -43 -7 29 c-5 18 -3 36 4 47 6 10 11 48 11 85 0
57 -2 65 -17 62 -22 -4 -31 -58 -11 -58 11 0 11 -2 0 -9 -9 -5 -12 -30 -10
-87 l3 -79 46 -3 47 -3 3 120 c3 95 7 124 20 137 12 11 22 13 34 7 9 -6 16
-13 16 -16 -6 -42 1 -157 9 -152 13 8 13 111 0 136 -14 25 9 36 39 19 18 -9
21 -20 20 -73 0 -34 -3 -56 -6 -49 -7 19 -23 14 -23 -7 0 -12 9 -21 25 -25 35
-9 31 -26 -5 -26 -17 0 -30 -5 -30 -12 0 -6 -6 -3 -14 8 -14 18 -15 17 -12
-11 2 -16 4 -33 5 -36 2 -13 53 -29 75 -23 24 6 23 -3 13 196 -3 63 -30 98
-71 98 -17 -1 -15 -3 9 -14 l30 -13 -32 1 c-19 1 -33 6 -33 14 0 19 -25 14
-45 -8 -10 -11 -23 -20 -29 -20 -7 0 -19 9 -29 20 -22 26 -83 26 -117 0z m306
-259 c-10 -16 -36 -13 -36 3 0 17 21 27 34 16 4 -5 5 -13 2 -19z"/>
<path d="M1790 615 c-13 -14 -20 -28 -17 -32 4 -3 7 -2 7 4 0 17 31 25 46 12
11 -9 14 -42 14 -130 l0 -119 55 0 55 0 0 124 c0 107 2 125 17 130 34 13 47
-18 45 -107 -2 -65 0 -78 9 -63 6 10 9 37 7 60 -3 22 1 57 7 76 12 33 12 30
13 -47 1 -45 -3 -85 -9 -88 -5 -4 -9 -16 -8 -28 1 -20 2 -20 8 3 l7 25 8 -29
c4 -18 3 -33 -4 -40 -8 -8 -9 -6 -4 8 5 13 4 17 -4 12 -6 -3 -15 2 -21 11 -8
14 -10 15 -11 3 0 -33 40 -60 79 -53 31 4 35 8 25 24 -4 7 -7 57 -5 110 2 62
-1 99 -8 104 -6 3 -9 10 -6 15 8 13 -35 34 -75 37 -49 3 -89 -35 -85 -83 2
-21 0 -32 -6 -28 -6 3 -8 13 -4 22 3 8 0 19 -7 23 -9 6 -9 11 0 22 10 12 8 18
-12 31 -38 24 -88 21 -116 -9z m105 -3 c11 -6 15 -12 8 -12 -17 0 -5 -141 13
-156 16 -12 19 -54 5 -54 -5 0 -12 6 -14 13 -3 6 -6 3 -7 -8 0 -15 -5 -11 -16
15 -14 31 -17 33 -24 15 -4 -11 -5 21 -2 71 4 86 3 93 -17 103 -11 7 -21 15
-21 20 0 11 52 7 75 -7z m108 5 c-3 -5 3 -6 16 -2 29 9 61 -3 54 -21 -3 -7 0
-14 6 -14 6 0 11 -7 11 -15 0 -8 -4 -15 -10 -15 -5 0 -10 -7 -10 -16 0 -14 3
-14 15 -4 14 12 16 5 14 -60 l-2 -73 -19 37 c-13 24 -20 61 -21 104 -1 39 -7
67 -14 69 -6 2 -13 -2 -15 -10 -2 -11 -9 -9 -26 8 -17 16 -19 22 -8 22 8 0 13
-5 9 -10z m82 -219 c10 -21 12 -35 5 -42 -6 -6 -11 -4 -14 5 -2 8 -9 29 -15
47 -12 40 2 34 24 -10z"/>
<path d="M2890 630 c10 -6 11 -10 3 -10 -7 0 -13 -4 -13 -10 0 -5 7 -7 15 -4
21 8 19 34 -2 34 -15 0 -16 -2 -3 -10z"/>
<path d="M1670 490 l0 -140 51 0 52 0 -7 42 c-8 51 -13 59 -31 51 -22 -8 -19
-45 2 -41 10 2 19 -4 21 -14 3 -14 -3 -18 -26 -18 -30 0 -42 14 -42 51 0 11 7
22 15 25 17 7 20 50 5 59 -6 4 -10 31 -9 61 2 43 6 54 17 49 7 -3 16 -5 18 -5
2 0 4 -24 4 -54 0 -58 7 -86 21 -86 5 0 7 29 5 65 -4 73 -19 95 -65 95 l-31 0
0 -140z"/>
<path d="M2174 538 c4 -51 7 -105 7 -120 0 -15 5 -30 10 -34 8 -4 9 2 4 17 -5
18 -4 21 4 9 6 -8 8 -22 6 -31 -7 -22 37 -43 72 -35 15 3 34 8 41 9 8 2 17 9
22 17 7 11 11 10 25 -3 21 -22 41 -22 54 1 9 16 11 16 26 -3 l17 -20 -7 20
c-4 11 -6 75 -5 143 l1 122 -31 0 c-20 0 -30 -5 -30 -15 0 -8 5 -15 11 -15 5
0 7 5 4 10 -3 6 -1 10 4 10 6 0 11 -5 11 -11 0 -5 3 -8 8 -6 6 4 9 -135 4
-170 -1 -6 -11 -9 -22 -6 -13 4 -20 14 -20 31 0 14 -3 23 -6 19 -12 -11 6 -78
19 -71 8 5 8 2 -1 -7 -25 -27 -33 10 -26 124 5 94 4 107 -10 107 -9 0 -16 -7
-16 -16 0 -8 4 -13 8 -10 5 3 5 -21 1 -52 -10 -68 -4 -139 12 -158 7 -8 9 -17
6 -20 -3 -3 -11 5 -18 17 l-12 23 -8 -22 c-11 -28 -45 -29 -54 -1 -6 17 -9 19
-16 8 -14 -22 -11 -39 6 -33 8 4 15 1 15 -5 0 -13 -27 -15 -35 -1 -3 5 -11 7
-18 4 -7 -2 -13 6 -13 21 -1 15 -9 34 -17 43 -20 22 -28 179 -10 186 6 3 14
-2 17 -10 3 -8 1 -14 -4 -14 -6 0 -10 -15 -10 -32 0 -25 3 -29 10 -18 8 12 10
9 10 -13 0 -16 -4 -26 -10 -22 -6 4 -10 -8 -10 -28 0 -21 6 -37 14 -40 12 -5
15 11 18 83 2 48 0 86 -4 83 -5 -2 -8 1 -8 6 0 6 9 11 20 11 17 0 20 -7 20
-50 0 -27 -3 -50 -7 -50 -5 0 -8 -31 -8 -69 0 -38 4 -67 9 -64 4 3 5 18 2 34
-3 15 -1 31 4 34 5 3 11 -5 13 -17 3 -13 4 24 3 82 l-1 105 -54 3 -54 3 7 -93z
m236 -168 c0 -5 -7 -10 -16 -10 -8 0 -12 5 -9 10 3 6 10 10 16 10 5 0 9 -4 9
-10z"/>
<path d="M2659 625 c-1 -3 -3 -9 -4 -15 -1 -5 -3 -64 -4 -131 -1 -77 -5 -118
-11 -114 -5 3 -10 1 -10 -4 0 -6 11 -11 25 -11 l25 0 0 140 c0 87 -4 140 -10
140 -5 0 -11 -2 -11 -5z m8 -207 c-2 -35 -3 -9 -3 57 0 66 1 94 3 63 2 -32 2
-86 0 -120z"/>
<path d="M2854 537 c1 -53 -3 -97 -7 -97 -5 0 -5 -4 -2 -10 9 -15 25 -12 25 5
0 8 4 15 9 15 5 0 8 11 5 25 -2 14 0 25 5 25 5 0 12 -15 14 -32 3 -25 4 -22 5
15 1 27 -2 47 -9 47 -5 0 -7 -6 -3 -12 5 -10 3 -10 -7 0 -12 11 -12 14 1 22
11 7 12 10 2 10 -10 0 -9 5 4 17 16 16 15 18 -9 26 -14 4 -28 16 -30 25 -2 9
-4 -27 -3 -81z"/>
<path d="M1326 605 c4 -8 7 -15 9 -15 2 0 5 7 9 15 3 9 0 15 -9 15 -9 0 -12
-6 -9 -15z"/>
<path d="M2410 565 l-3 -40 -6 35 -7 35 -5 -45 c-3 -26 -1 -48 5 -52 17 -11
27 18 23 65 l-4 42 -3 -40z"/>
<path d="M1017 564 c-5 -17 -3 -41 3 -55 10 -23 10 -23 6 -1 -4 19 -2 21 10
11 25 -21 36 3 20 42 -17 38 -22 25 -6 -17 9 -23 9 -25 -4 -15 -8 7 -16 25
-18 39 l-4 27 -7 -31z"/>
<path d="M1251 498 c0 -62 3 -98 9 -98 7 0 10 28 9 72 -3 116 -16 135 -18 26z"/>
<path d="M2914 543 c4 -8 6 -17 6 -19 0 -2 5 -4 10 -4 6 0 10 7 10 15 0 8 7
15 15 15 18 0 20 -16 3 -23 -7 -3 0 -5 15 -4 19 1 27 6 25 17 -2 10 -16 15
-46 16 -34 1 -42 -2 -38 -13z"/>
<path d="M1108 528 c-4 -10 -5 -24 -2 -32 3 -7 -9 -25 -25 -39 -17 -14 -31
-29 -31 -33 0 -3 6 -1 14 5 10 8 16 9 21 1 3 -5 12 -10 18 -10 8 0 8 3 -1 9
-11 6 -10 11 3 24 11 11 15 30 13 54 -2 27 -5 33 -10 21z"/>
<path d="M1053 493 c-7 -3 -13 -12 -13 -21 0 -15 -2 -15 -10 -2 -8 13 -10 12
-11 -5 -1 -11 -2 -27 -1 -35 0 -7 -6 -26 -13 -41 -8 -14 -11 -29 -8 -33 17
-16 -16 -3 -35 14 -27 25 -27 25 -27 -5 0 -14 3 -25 8 -25 4 0 7 5 7 11 0 8 4
8 15 -1 21 -18 74 -2 109 32 17 17 25 27 19 24 -8 -5 -13 -1 -13 9 0 9 -5 13
-11 10 -6 -4 -8 -13 -5 -21 3 -7 1 -16 -4 -19 -4 -3 -10 1 -13 7 -2 7 -8 9
-13 5 -5 -4 -2 -12 6 -17 8 -6 13 -10 10 -11 -3 0 -15 -2 -27 -5 l-23 -4 20
32 c10 17 17 35 14 40 -3 4 0 8 5 8 6 0 11 5 11 11 0 7 7 17 17 24 17 13 7 25
-14 18z"/>
<path d="M763 436 c-6 -8 -8 -19 -3 -27 5 -8 4 -19 -2 -26 -20 -25 -2 -23 21
1 16 17 21 31 16 45 -7 24 -15 26 -32 7z m27 -16 c0 -5 -2 -10 -4 -10 -3 0 -8
5 -11 10 -3 6 -1 10 4 10 6 0 11 -4 11 -10z"/>
<path d="M2608 395 c-2 -25 0 -45 4 -45 5 0 8 20 8 45 0 25 -2 45 -4 45 -2 0
-6 -20 -8 -45z"/>
<path d="M2631 404 c0 -11 3 -14 6 -6 3 7 2 16 -1 19 -3 4 -6 -2 -5 -13z"/>
<path d="M2010 190 c0 -5 5 -10 10 -10 6 0 10 5 10 10 0 6 -4 10 -10 10 -5 0
-10 -4 -10 -10z"/>
<path d="M2552 133 c3 -64 5 -68 27 -71 28 -4 51 20 51 54 0 28 -26 55 -45 48
-10 -4 -15 0 -15 15 0 12 -5 21 -10 21 -7 0 -10 -25 -8 -67z m54 2 c9 -23 -5
-65 -21 -65 -10 0 -15 11 -15 33 0 19 3 37 7 40 11 11 23 8 29 -8z"/>
<path d="M2650 190 c0 -5 5 -10 10 -10 6 0 10 5 10 10 0 6 -4 10 -10 10 -5 0
-10 -4 -10 -10z"/>
<path d="M2698 194 c-12 -11 -9 -122 3 -129 6 -4 11 -5 12 -4 6 11 -9 140 -15
133z"/>
<path d="M1471 171 c-16 -29 -13 -77 5 -95 17 -18 24 -19 48 -10 25 9 19 22
-8 17 -19 -4 -25 0 -30 21 -8 34 3 76 20 76 8 0 14 -7 14 -15 0 -8 5 -15 11
-15 6 0 9 8 7 18 -5 26 -54 28 -67 3z"/>
<path d="M2322 128 c1 -61 1 -62 7 -18 l7 45 13 -42 c8 -24 18 -43 22 -43 4 0
14 19 22 43 l15 42 1 -42 c1 -67 21 -50 21 17 0 73 -21 82 -43 18 l-14 -43
-12 43 c-7 25 -18 42 -26 42 -12 0 -15 -14 -13 -62z"/>
<path d="M2777 183 c-4 -3 -7 -30 -7 -60 0 -41 4 -55 17 -60 24 -9 69 20 65
43 -2 10 -4 28 -5 39 -1 11 -6 26 -10 33 -9 13 -49 17 -60 5z m48 -24 c0 -7
-8 -15 -17 -17 -18 -3 -25 18 -11 32 10 10 28 1 28 -15z m3 -57 c3 -17 -2 -22
-17 -22 -14 0 -21 6 -21 18 0 38 33 41 38 4z"/>
<path d="M2064 172 c-11 -8 -6 -112 6 -112 9 0 18 97 10 110 -3 5 -10 6 -16 2z"/>
<path d="M3074 168 c-10 -16 -5 -90 7 -102 5 -6 9 8 9 36 0 26 4 48 9 50 5 2
3 9 -4 15 -11 10 -16 10 -21 1z"/>
<path d="M1683 162 c-20 -3 -23 -10 -23 -48 0 -53 18 -59 22 -7 4 52 28 56 28
4 0 -51 18 -54 22 -4 4 52 28 56 28 4 0 -22 5 -43 11 -46 15 -10 16 -6 11 48
-4 44 -6 47 -31 45 -15 -1 -31 0 -36 3 -6 3 -20 3 -32 1z"/>
<path d="M1567 153 c-13 -12 -7 -70 8 -83 36 -29 79 24 55 69 -10 20 -49 29
-63 14z m49 -28 c7 -26 -11 -59 -27 -49 -5 3 -9 21 -9 40 0 41 26 48 36 9z"/>
<path d="M1812 113 c3 -47 4 -48 36 -48 32 -1 32 0 32 47 0 59 -18 64 -22 6
-2 -24 -7 -43 -13 -43 -5 0 -11 19 -13 43 -2 23 -8 42 -13 42 -6 0 -9 -21 -7
-47z"/>
<path d="M1910 109 c0 -58 16 -58 22 0 5 51 28 53 28 2 0 -22 5 -43 11 -46 7
-5 9 9 7 42 -3 46 -4 48 -35 51 l-33 3 0 -52z"/>
<path d="M2010 110 c0 -27 5 -50 10 -50 6 0 10 23 10 50 0 28 -4 50 -10 50 -5
0 -10 -22 -10 -50z"/>
<path d="M2110 145 c0 -8 4 -15 9 -15 5 0 11 7 15 15 3 9 0 15 -9 15 -8 0 -15
-7 -15 -15z"/>
<path d="M2157 140 c4 -13 0 -20 -9 -20 -8 0 -23 -6 -33 -14 -16 -12 -17 -16
-6 -30 7 -9 18 -16 23 -16 6 0 5 6 -2 15 -14 16 -6 35 15 35 9 0 14 -8 12 -21
-1 -12 4 -24 11 -26 13 -5 17 52 6 81 -9 23 -23 20 -17 -4z"/>
<path d="M2203 144 c-4 -10 4 -24 22 -38 21 -17 25 -25 16 -31 -8 -4 -17 -2
-22 6 -4 7 -11 10 -15 6 -12 -11 12 -29 32 -25 28 5 30 44 4 58 -13 7 -19 18
-16 26 3 8 1 14 -5 14 -5 0 -12 -7 -16 -16z"/>
<path d="M2240 145 c0 -8 5 -15 10 -15 6 0 10 7 10 15 0 8 -4 15 -10 15 -5 0
-10 -7 -10 -15z"/>
<path d="M2456 144 c-10 -25 -7 -59 6 -72 33 -33 77 10 64 62 -5 20 -13 26
-35 26 -17 0 -31 -6 -35 -16z m49 -35 c0 -24 -5 -34 -15 -34 -16 0 -25 37 -16
62 10 26 31 8 31 -28z"/>
<path d="M2650 110 c0 -27 5 -50 10 -50 6 0 10 23 10 50 0 28 -4 50 -10 50 -5
0 -10 -22 -10 -50z"/>
<path d="M2880 144 c0 -14 3 -14 15 -4 8 7 15 14 15 16 0 2 -7 4 -15 4 -8 0
-15 -7 -15 -16z"/>
<path d="M2920 142 c0 -9 -10 -22 -22 -27 -13 -6 -23 -19 -23 -30 0 -16 7 -20
35 -21 l35 -1 -3 48 c-2 27 -8 49 -13 49 -5 0 -9 -8 -9 -18z m0 -46 c0 -8 -4
-17 -9 -21 -12 -7 -24 12 -16 25 9 15 25 12 25 -4z"/>
<path d="M2970 115 c0 -54 17 -60 22 -8 4 52 28 56 28 4 0 -22 5 -43 10 -46 6
-4 10 13 10 44 l0 51 -35 0 c-35 0 -35 0 -35 -45z"/>
<path d="M3124 147 c-17 -46 20 -107 48 -78 11 10 9 12 -7 9 -12 -2 -21 3 -23
14 -2 11 4 18 20 20 35 5 31 42 -5 46 -17 2 -29 -2 -33 -11z m46 -12 c0 -8 -7
-15 -15 -15 -8 0 -15 7 -15 15 0 8 7 15 15 15 8 0 15 -7 15 -15z"/>
<path d="M3210 116 c0 -25 5 -46 10 -46 6 0 10 18 10 40 0 29 4 40 15 40 11 0
15 -11 15 -39 0 -22 5 -43 11 -46 7 -5 9 9 7 42 -3 46 -4 48 -35 51 -33 3 -33
3 -33 -42z"/>
</g>
</svg>
